<mxfile modified="2020-07-12T22:03:20.175Z" host="app.diagrams.net" agent="5.0 (Macintosh; Intel Mac OS X 10_12_6) AppleWebKit/537.36 (KHTML, like Gecko) Chrome/83.0.4103.116 Safari/537.36" etag="rD-4d8pwDLrAJXAe5gmV" version="13.4.2" type="github">
  <diagram id="DBnsVtaEEkDt_3RqzyvM" name="Page-1">
    <mxGraphModel dx="946" dy="550" grid="1" gridSize="10" guides="1" tooltips="1" connect="1" arrows="1" fold="1" page="1" pageScale="1" pageWidth="827" pageHeight="1169" math="0" shadow="0">
      <root>
        <mxCell id="bZvJSFeYFlgYeA4dcLWh-0" />
        <mxCell id="bZvJSFeYFlgYeA4dcLWh-1" parent="bZvJSFeYFlgYeA4dcLWh-0" />
      </root>
    </mxGraphModel>
  </diagram>
</mxfile>
